<svg version="1.1" id="Layer_1" xmlns="http://www.w3.org/2000/svg" xmlns:xlink="http://www.w3.org/1999/xlink" x="0px" y="0px"
	 width="100%" viewBox="0 0 544 352" enable-background="new 0 0 544 352" xml:space="preserve">
<path fill="#000000" opacity="1.000000" stroke="none" 
	d="
M307.997589,280.931549 
	C302.262756,287.983246 295.212311,290.653870 286.602692,289.306183 
	C285.952698,289.204437 285.248627,289.176300 284.610687,289.309814 
	C273.571960,291.619934 265.962311,285.891022 258.983429,278.524170 
	C257.504547,276.963043 256.753998,275.291595 256.768036,273.179382 
	C256.792389,269.517151 256.628113,265.848358 256.795593,262.193939 
	C256.941925,259.001495 256.346893,256.327240 253.602448,254.307968 
	C251.241013,252.570511 250.895966,250.540421 253.557175,248.703827 
	C256.370697,246.762115 256.866455,244.038651 256.809082,240.847504 
	C256.674469,233.358521 256.925659,225.861191 256.720856,218.375427 
	C256.593140,213.706467 259.056458,212.870605 262.981964,212.859512 
	C266.950623,212.848312 269.263397,213.804337 269.221893,218.413086 
	C269.082458,233.894119 269.167725,249.377304 269.192017,264.859650 
	C269.204407,272.764984 273.450256,277.141205 281.484467,276.994507 
	C286.649963,276.900238 292.121918,278.492615 296.760223,274.345703 
	C299.429047,271.959595 300.892822,269.524292 300.855713,265.799835 
	C300.701355,250.319077 300.942749,234.833771 300.723358,219.354614 
	C300.656525,214.639206 302.162262,212.837097 306.978394,212.803421 
	C311.966583,212.768524 313.328918,214.982773 313.205322,219.491898 
	C313.013824,226.478470 313.258972,233.476135 313.132751,240.465729 
	C313.072662,243.795609 313.508789,246.692490 316.421600,248.845932 
	C318.329468,250.256424 318.895233,252.263687 316.734436,253.818756 
	C313.044220,256.474487 312.974457,260.168854 313.146423,264.081665 
	C313.241364,266.241821 313.005920,268.424744 313.207581,270.570312 
	C313.624207,275.002411 312.061279,278.363281 307.997589,280.931549 
z"/>
<path fill="#000000" opacity="1.000000" stroke="none" 
	d="
M233.340088,214.075134 
	C233.846832,216.634918 232.334396,218.121002 231.266571,219.764084 
	C225.277084,228.980240 219.346802,238.237259 213.191589,247.341934 
	C211.227631,250.246994 211.161102,252.560257 213.143738,255.481689 
	C219.408951,264.713470 225.475555,274.080658 231.560974,283.433228 
	C232.513794,284.897583 234.039566,286.226135 233.508743,288.300659 
	C225.542358,290.997528 221.877716,289.829376 217.633423,283.274353 
	C213.217712,276.454559 208.805511,269.632568 204.241760,262.579681 
	C201.317474,264.181122 200.420593,266.807190 198.994019,268.919708 
	C195.918884,273.473541 193.014389,278.142334 190.016693,282.748810 
	C185.317383,289.970184 182.867249,290.839050 173.830048,288.524261 
	C172.949478,286.210419 174.711929,284.798798 175.759674,283.200714 
	C181.694855,274.148132 187.585861,265.063812 193.698624,256.131805 
	C195.992783,252.779572 196.050568,250.069260 193.691238,246.637848 
	C187.370850,237.445572 181.379028,228.026627 175.307510,218.664780 
	C174.437637,217.323547 172.946396,215.908188 173.914795,214.163528 
	C174.887177,212.411652 176.895264,213.199814 178.476929,212.940277 
	C183.595978,212.100296 186.775848,214.297638 189.378937,218.709579 
	C193.580933,225.831451 198.360153,232.612747 202.829712,239.437317 
	C205.842651,238.720047 206.494080,236.407166 207.642227,234.719757 
	C211.107986,229.626236 214.387970,224.405838 217.717545,219.220245 
	C222.094086,212.404068 224.738373,211.456726 233.340088,214.075134 
z"/>
<path fill="#000000" opacity="1.000000" stroke="none" 
	d="
M361.003143,289.289185 
	C356.671387,289.283020 352.836578,289.194794 349.006714,289.294678 
	C345.782562,289.378754 344.571655,287.906097 344.613434,284.759918 
	C344.713013,277.262573 344.540710,269.761139 344.678284,262.264984 
	C344.737152,259.056763 344.168335,256.387207 341.362518,254.431763 
	C338.743164,252.606232 338.265747,250.489304 341.290924,248.588150 
	C344.232361,246.739624 344.736725,244.088867 344.670105,240.859192 
	C344.511993,233.197372 344.828613,225.523804 344.590057,217.866287 
	C344.427643,212.653397 347.758179,213.036163 351.197449,212.888855 
	C354.963409,212.727554 356.537445,214.027420 356.489990,218.079559 
	C356.294922,234.741196 356.377655,251.406250 356.383240,268.070038 
	C356.386230,277.045959 356.445953,277.056976 365.165344,277.121063 
	C372.325134,277.173706 379.487335,277.463623 386.642731,277.333435 
	C391.099731,277.252380 391.323242,279.856567 391.304932,283.169708 
	C391.286194,286.564087 391.345917,289.481995 386.496277,289.344604 
	C378.171082,289.108795 369.834229,289.285248 361.003143,289.289185 
z"/>
<path fill="#000000" opacity="1.000000" stroke="none" 
	d="
M306.144043,160.102417 
	C318.339417,139.669418 315.493042,120.768066 301.107239,102.779564 
	C308.205933,102.784706 320.693329,116.015602 323.683441,127.256973 
	C328.804688,146.510254 323.946228,164.687180 306.318878,177.537689 
	C294.803864,185.932251 274.707642,187.870193 263.310730,179.942429 
	C281.373688,180.211960 295.801788,174.667770 306.144043,160.102417 
z"/>
<path fill="#000000" opacity="1.000000" stroke="none" 
	d="
M242.968002,148.078262 
	C263.865234,166.754410 285.128021,166.334579 306.752869,149.831818 
	C307.854431,152.549133 306.542847,154.180161 305.542450,155.849564 
	C295.620819,172.406128 275.085144,180.452713 256.696564,174.979462 
	C253.299088,173.968216 250.354462,172.326859 247.987488,169.494797 
	C241.824570,162.120941 238.521866,153.741531 237.965805,143.971283 
	C240.654190,144.373016 241.156174,146.730194 242.968002,148.078262 
z"/>
<path fill="#000000" opacity="1.000000" stroke="none" 
	d="
M253.778076,124.836411 
	C250.077042,132.743576 249.812836,140.840668 250.221359,149.159302 
	C242.278381,146.106552 237.164963,137.064224 238.881256,129.804764 
	C242.885910,112.866142 258.686737,99.177101 276.101227,97.648697 
	C279.285889,97.369202 282.465881,95.843613 287.141357,97.866409 
	C271.457794,102.161247 259.905090,110.045921 253.778076,124.836411 
z"/>
</svg>