<?xml version="1.0" standalone="no"?>
<!DOCTYPE svg PUBLIC "-//W3C//DTD SVG 20010904//EN"
 "http://www.w3.org/TR/2001/REC-SVG-20010904/DTD/svg10.dtd">
<svg version="1.0" xmlns="http://www.w3.org/2000/svg"
 width="600.000000pt" height="400.000000pt" viewBox="0 0 600.000000 400.000000"
 preserveAspectRatio="xMidYMid meet">
<g transform="translate(0.000000,400.000000) scale(0.100000,-0.100000)"
fill="#000000" stroke="none">
<path d="M2975 3158 c-11 -6 -45 -37 -76 -69 -32 -32 -60 -55 -65 -51 -4 4 -4
2 -1 -4 8 -14 -17 -37 -27 -26 -4 4 -6 2 -4 -4 4 -14 -63 -80 -77 -76 -5 2 -7
1 -4 -3 11 -10 -49 -67 -62 -59 -8 4 -9 3 -5 -4 9 -15 -61 -85 -76 -76 -6 4
-8 3 -4 -4 8 -13 -288 -314 -299 -304 -5 4 -5 2 -2 -4 8 -14 -17 -37 -28 -26
-5 4 -6 3 -3 -3 6 -13 -38 -55 -48 -46 -4 3 -4 1 -1 -5 8 -14 -78 -98 -92 -90
-7 5 -8 1 -4 -10 4 -12 3 -15 -6 -10 -6 4 -10 4 -9 -1 2 -5 -54 -66 -124 -135
-119 -118 -148 -160 -118 -170 6 -2 12 -13 12 -25 1 -11 7 -19 13 -17 5 2 28
-14 50 -37 22 -22 51 -50 64 -62 21 -20 127 -128 197 -202 16 -17 42 -40 58
-53 16 -12 26 -22 22 -22 -3 0 13 -17 36 -37 24 -21 46 -43 50 -49 6 -9 574
-575 629 -626 30 -29 37 -25 168 105 27 26 46 47 44 47 -2 0 17 18 42 40 25
22 44 40 42 40 -5 0 162 167 196 197 14 11 29 27 33 35 5 7 28 30 51 50 23 20
40 38 38 40 -2 2 9 12 26 23 16 11 29 23 29 27 0 7 82 90 153 154 20 19 35 34
34 34 -2 0 32 37 77 83 45 45 83 82 86 82 3 0 21 16 41 37 21 21 35 38 32 38
-3 0 7 10 23 22 16 12 32 27 36 33 3 5 16 21 27 34 12 13 21 30 21 38 0 17
-323 343 -340 343 -7 0 -10 3 -7 6 3 4 -16 28 -43 54 -26 27 -46 51 -43 54 4
3 1 6 -6 6 -6 0 -29 18 -51 40 -22 22 -36 40 -33 40 4 0 -7 11 -25 23 -17 13
-28 27 -24 31 4 4 2 6 -3 4 -6 -1 -131 119 -280 268 -231 232 -300 295 -317
294 -2 0 -12 -6 -23 -12z m603 -581 l572 -572 -575 -575 -575 -575 -575 575
-575 575 572 572 c315 315 575 573 578 573 3 0 263 -258 578 -573z"/>
<path d="M2567 2432 l-427 -427 430 -430 430 -430 430 430 430 430 -427 427
c-236 236 -430 428 -433 428 -3 0 -197 -192 -433 -428z m443 379 c0 -5 9 -13
20 -16 11 -3 20 -11 20 -17 0 -13 56 -68 70 -68 5 0 9 -3 8 -7 -2 -5 20 -30
47 -57 28 -27 49 -53 47 -58 -1 -5 2 -7 8 -3 5 3 13 -1 16 -9 3 -8 14 -18 25
-21 10 -4 18 -9 16 -13 -1 -4 22 -30 50 -58 29 -29 49 -55 45 -60 -4 -4 -2 -4
4 -1 10 6 27 -11 70 -68 9 -11 12 -13 8 -5 -4 8 8 2 28 -15 19 -16 33 -33 31
-37 -2 -4 6 -12 17 -18 11 -6 18 -15 15 -19 -2 -5 9 -14 25 -21 17 -7 28 -15
25 -18 -3 -3 7 -14 22 -24 16 -10 25 -18 20 -18 -9 0 67 -74 111 -108 22 -16
31 -30 27 -41 -3 -8 -3 -12 1 -9 3 4 12 2 18 -4 10 -9 9 -15 -3 -28 -9 -9 -20
-15 -24 -12 -5 2 -7 -2 -5 -10 2 -8 -9 -26 -24 -41 -16 -16 -28 -25 -28 -22 0
3 -6 0 -14 -7 -8 -7 -13 -15 -13 -18 1 -3 -10 -18 -25 -33 -16 -16 -28 -25
-28 -22 0 3 -6 0 -14 -7 -8 -7 -12 -16 -9 -20 2 -5 1 -8 -4 -8 -10 -1 -88 -70
-88 -79 1 -3 -9 -16 -22 -29 -13 -13 -23 -20 -23 -17 0 3 -6 0 -14 -7 -8 -7
-13 -15 -12 -18 1 -3 -14 -21 -33 -40 -19 -19 -29 -27 -22 -17 20 26 8 20 -20
-10 -13 -14 -17 -23 -9 -18 8 5 2 -5 -15 -21 -16 -16 -32 -28 -35 -27 -3 0
-14 -8 -25 -20 -11 -11 -13 -16 -5 -12 18 10 -49 -54 -76 -73 -11 -7 -12 -10
-4 -6 8 4 -2 -10 -23 -30 -20 -20 -41 -36 -46 -36 -5 0 -19 -15 -32 -34 -14
-21 -28 -32 -38 -28 -9 3 -12 1 -7 -6 4 -7 -9 -27 -30 -47 l-36 -35 -26 32
c-14 18 -44 49 -67 68 -23 19 -40 39 -37 44 3 5 -3 6 -14 2 -10 -4 -15 -4 -12
-1 4 4 -15 29 -42 55 -26 27 -45 52 -42 55 3 3 0 5 -6 5 -15 0 -138 129 -134
141 1 6 -1 8 -6 5 -4 -3 -28 14 -53 38 -60 58 -117 121 -100 111 10 -6 12 -4
7 4 -4 7 -12 11 -18 9 -15 -5 -160 141 -152 154 4 6 3 8 -4 4 -14 -8 -69 48
-64 65 3 8 1 11 -3 7 -4 -4 -14 0 -22 10 -9 10 -12 11 -7 2 4 -8 3 -11 -1 -7
-12 10 -15 37 -5 37 5 0 39 32 77 71 37 39 74 76 81 82 7 7 33 31 58 55 25 24
49 40 56 36 7 -5 8 -3 3 5 -4 8 4 24 21 42 27 29 52 40 38 17 -4 -7 -3 -8 5
-4 6 4 9 12 5 17 -8 14 74 91 88 83 7 -5 8 -3 3 5 -4 8 8 27 33 52 43 40 65
52 41 22 -13 -16 -12 -17 3 -4 10 7 15 17 13 22 -3 4 12 25 32 47 21 21 67 70
103 108 35 38 60 62 55 54 -8 -13 -6 -13 8 -1 9 7 14 17 11 22 -3 5 1 9 9 9 7
0 23 14 35 30 22 29 42 39 42 21z"/>
<path d="M2954 2576 c-53 -46 -152 -144 -161 -159 -4 -7 -21 -23 -37 -35 -16
-12 -26 -22 -22 -22 3 0 -11 -15 -31 -34 -32 -29 -136 -132 -270 -270 -18 -18
-29 -36 -26 -40 3 -3 1 -6 -5 -6 -7 0 -6 -9 3 -27 8 -15 11 -31 8 -36 -4 -6
-1 -7 7 -2 9 5 33 -13 76 -60 35 -37 64 -72 64 -78 0 -6 3 -8 6 -4 6 5 173
-152 172 -163 -1 -17 3 -24 10 -15 4 7 21 -5 42 -29 19 -22 29 -36 21 -31 -10
5 -12 4 -7 -3 4 -7 11 -12 16 -12 13 0 80 -66 80 -79 0 -5 5 -13 12 -17 7 -5
8 -2 3 7 -4 8 12 -5 36 -28 25 -24 48 -43 51 -43 3 0 40 34 82 76 56 56 81 74
94 69 13 -5 14 -4 5 6 -10 9 5 29 69 92 62 61 82 76 90 66 7 -10 8 -8 4 7 -4
14 3 29 24 49 16 16 30 25 30 21 0 -4 6 -1 14 6 10 9 11 15 2 20 -8 6 -7 8 2
8 13 0 152 135 152 148 0 4 9 13 20 20 11 7 20 17 20 23 0 5 -24 34 -53 64
-30 30 -52 55 -50 55 2 0 -17 18 -42 40 -25 22 -43 40 -40 40 4 0 -14 17 -38
38 -25 20 -50 46 -56 57 -7 11 -25 29 -41 40 -16 10 -26 23 -24 27 3 4 1 8 -4
8 -11 0 -68 56 -122 119 -19 22 -38 41 -43 41 -4 0 -23 18 -43 40 -20 22 -42
40 -49 40 -7 0 -30 -15 -51 -34z m341 -286 l290 -290 -290 -290 -290 -289
-294 291 -294 290 289 289 c159 159 291 289 294 289 3 0 136 -131 295 -290z"/>
<path d="M2486 1978 c3 -5 10 -6 15 -3 13 9 11 12 -6 12 -8 0 -12 -4 -9 -9z"/>
<path d="M2566 1912 c-3 -5 1 -9 9 -9 8 0 12 4 9 9 -3 4 -7 8 -9 8 -2 0 -6 -4
-9 -8z"/>
<path d="M2786 1691 c-3 -4 4 -17 17 -27 22 -19 22 -19 4 2 -9 11 -14 24 -10
27 3 4 4 7 0 7 -3 0 -8 -4 -11 -9z"/>
<path d="M2906 1588 c3 -5 9 -7 12 -4 3 3 12 0 21 -6 13 -10 14 -10 4 2 -15
16 -46 23 -37 8z"/>
<path d="M3155 2760 c-3 -6 1 -7 9 -4 18 7 21 14 7 14 -6 0 -13 -4 -16 -10z"/>
<path d="M3323 2625 c0 -8 4 -12 9 -9 5 3 6 10 3 15 -9 13 -12 11 -12 -6z"/>
<path d="M2660 2606 c0 -2 7 -7 16 -10 8 -3 12 -2 9 4 -6 10 -25 14 -25 6z"/>
<path d="M3483 2465 c0 -8 4 -12 9 -9 5 3 6 10 3 15 -9 13 -12 11 -12 -6z"/>
<path d="M2439 2353 c-13 -16 -12 -17 4 -4 9 7 17 15 17 17 0 8 -8 3 -21 -13z"/>
<path d="M3540 2366 c0 -2 8 -10 18 -17 15 -13 16 -12 3 4 -13 16 -21 21 -21
13z"/>
<path d="M2345 2311 c-6 -11 13 -26 22 -17 4 3 1 6 -6 6 -7 0 -9 5 -6 10 3 6
4 10 1 10 -3 0 -7 -4 -11 -9z"/>
<path d="M3780 2126 c0 -2 8 -10 18 -17 15 -13 16 -12 3 4 -13 16 -21 21 -21
13z"/>
<path d="M2103 2055 c0 -8 4 -12 9 -9 5 3 6 10 3 15 -9 13 -12 11 -12 -6z"/>
<path d="M2030 1881 c0 -6 4 -13 10 -16 6 -3 7 1 4 9 -7 18 -14 21 -14 7z"/>
<path d="M3956 1873 c-6 -14 -5 -15 5 -6 7 7 10 15 7 18 -3 3 -9 -2 -12 -12z"/>
<path d="M3796 1713 c-6 -14 -5 -15 5 -6 7 7 10 15 7 18 -3 3 -9 -2 -12 -12z"/>
<path d="M2300 1596 c0 -2 8 -10 18 -17 15 -13 16 -12 3 4 -13 16 -21 21 -21
13z"/>
<path d="M2430 1481 c0 -6 4 -13 10 -16 6 -3 7 1 4 9 -7 18 -14 21 -14 7z"/>
<path d="M3476 1393 c-6 -14 -5 -15 5 -6 7 7 10 15 7 18 -3 3 -9 -2 -12 -12z"/>
<path d="M3316 1233 c-6 -14 -5 -15 5 -6 7 7 10 15 7 18 -3 3 -9 -2 -12 -12z"/>
<path d="M3236 1153 c-6 -14 -5 -15 5 -6 7 7 10 15 7 18 -3 3 -9 -2 -12 -12z"/>
<path d="M2340 2550 c-9 -6 -10 -10 -3 -10 6 0 15 5 18 10 8 12 4 12 -15 0z"/>
</g>
</svg>
