<svg version="1.1" id="Layer_1" xmlns="http://www.w3.org/2000/svg" xmlns:xlink="http://www.w3.org/1999/xlink" x="0px" y="0px"
	 width="100%" viewBox="0 0 809 676" enable-background="new 0 0 809 676" xml:space="preserve">
<path fill="#100F15" opacity="1.000000" stroke="none" 
	d="
M479.000000,677.000000 
	C319.333344,677.000000 160.166672,677.000000 1.000000,677.000000 
	C1.000000,451.666656 1.000000,226.333328 1.000000,1.000000 
	C270.666656,1.000000 540.333313,1.000000 810.000000,1.000000 
	C810.000000,226.333328 810.000000,451.666656 810.000000,677.000000 
	C699.833313,677.000000 589.666687,677.000000 479.000000,677.000000 
M438.226379,486.713715 
	C448.278442,480.596863 451.955658,471.684601 449.850677,460.229431 
	C449.791443,459.907135 449.895813,459.554596 449.835510,459.232697 
	C448.268860,450.867188 451.014923,444.413666 458.324646,439.951416 
	C458.524109,439.829620 458.543457,439.412750 458.718109,438.940765 
	C457.801392,438.083954 456.956696,437.001831 455.862152,436.321869 
	C450.999268,433.300934 449.484894,429.174500 449.690643,423.377869 
	C450.167664,409.937439 449.842407,396.468536 449.842407,382.845337 
	C444.073517,382.845337 438.692749,382.845337 433.160187,382.845337 
	C433.160187,384.863495 433.160217,386.523529 433.160187,388.183533 
	C433.159943,413.671448 433.183807,439.159424 433.104858,464.647095 
	C433.099640,466.332886 432.842499,468.525635 431.797852,469.615479 
	C426.249603,475.404144 420.475952,480.978821 411.256744,478.876556 
	C409.673187,478.515472 407.898621,478.595947 406.277252,478.864624 
	C398.695557,480.120972 392.933075,477.260864 387.720795,471.858032 
	C385.186768,469.231354 384.076477,466.843018 384.098297,463.219971 
	C384.249023,438.232727 384.177673,413.244171 384.177704,388.256012 
	C384.177704,386.463562 384.177704,384.671143 384.177704,382.802185 
	C378.521790,382.802185 373.302429,382.802185 367.813110,382.802185 
	C367.813110,394.943634 367.331116,406.775757 367.975739,418.546173 
	C368.436340,426.956146 367.134033,433.879395 359.369232,438.401947 
	C359.050446,438.587646 358.972870,439.187531 358.752716,439.659180 
	C360.088257,440.825470 361.212738,442.123474 362.610718,442.969604 
	C366.962097,445.603302 368.244110,449.337463 367.908508,454.310638 
	C367.505615,460.280548 367.535675,466.318115 367.955780,472.285767 
	C368.118591,474.598419 369.352203,477.299927 370.980377,478.957672 
	C375.756561,483.820801 380.856781,488.391479 386.093323,492.761200 
	C387.693298,494.096344 390.125641,495.019745 392.209778,495.085480 
	C400.364075,495.342682 408.580261,494.622620 416.680939,495.327942 
	C425.295685,496.078003 432.277252,493.996124 438.226379,486.713715 
M260.808197,493.530579 
	C269.441345,480.041504 278.074463,466.552399 287.002441,452.602631 
	C295.840576,466.320221 304.101959,479.205505 312.464935,492.024536 
	C313.290192,493.289520 314.688385,494.981628 315.904510,495.053375 
	C321.433044,495.379486 326.991577,495.196228 333.190460,495.196228 
	C321.394226,477.236084 310.258820,460.064545 298.836853,443.085754 
	C296.697083,439.904999 296.860199,437.806854 298.929840,434.759827 
	C306.689056,423.336304 314.163147,411.718842 321.722260,400.159851 
	C325.404938,394.528503 329.039490,388.865723 333.160034,382.500000 
	C327.573700,382.500000 322.944611,382.714661 318.347839,382.421844 
	C315.454773,382.237579 313.816528,383.238617 312.322418,385.627686 
	C306.938812,394.235931 301.371124,402.729309 295.850342,411.251404 
	C293.018066,415.623383 290.137848,419.964264 286.929840,424.851593 
	C278.279022,411.374542 270.146698,398.626984 261.892822,385.958649 
	C260.991852,384.575806 259.452728,382.761963 258.102997,382.667267 
	C252.712387,382.289062 247.279633,382.511230 241.193848,382.511230 
	C242.542847,384.741730 243.422028,386.292938 244.392349,387.784851 
	C254.738419,403.692139 265.042511,419.627350 275.511658,435.453369 
	C277.234436,438.057678 277.276306,439.929810 275.503235,442.540710 
	C268.866577,452.313629 262.459320,462.242920 256.003998,472.138275 
	C251.146515,479.584137 246.347046,487.067810 240.775055,495.690125 
	C248.115250,495.129120 254.272003,494.658569 260.808197,493.530579 
M515.537659,411.500305 
	C515.537659,401.906219 515.537659,392.312164 515.537659,382.859039 
	C509.619659,382.859039 504.398895,382.859039 498.989746,382.859039 
	C498.989746,395.062439 498.570160,406.906555 499.134338,418.703644 
	C499.523071,426.832336 498.669891,433.792694 490.833649,438.127747 
	C490.448212,438.340973 490.256348,438.904053 489.864990,439.459412 
	C491.000366,440.466309 491.987579,441.624939 493.220337,442.385315 
	C498.166229,445.435883 499.314484,449.760132 499.127411,455.431122 
	C498.694397,468.557831 498.989746,481.708557 498.989746,495.006165 
	C521.796875,495.006165 544.252869,495.006165 566.722534,495.006165 
	C566.722534,489.561401 566.722534,484.318054 566.722534,478.714294 
	C549.661621,478.714294 532.885437,478.714294 515.537598,478.714294 
	C515.537598,456.402557 515.537598,434.451447 515.537659,411.500305 
M469.125946,275.464294 
	C470.430389,244.333557 447.314453,220.296097 434.966431,217.404892 
	C453.939728,240.732208 459.075806,266.408905 446.113281,293.984009 
	C433.005981,321.867157 408.963928,332.705444 378.460175,333.054565 
	C416.442871,351.418335 466.945374,324.262238 469.125946,275.464294 
M339.063629,280.917145 
	C341.775146,289.405731 343.657288,298.285095 347.422821,306.277039 
	C351.487457,314.903931 357.818024,321.609528 368.048035,324.279694 
	C393.869751,331.019592 422.532410,320.654907 437.260956,298.354004 
	C439.048950,295.646759 440.142883,292.481110 441.558472,289.527863 
	C403.673157,314.837463 369.793976,311.937714 339.014526,278.507111 
	C339.014526,279.120270 339.014526,279.617493 339.063629,280.917145 
M357.256592,260.158325 
	C357.517395,259.195099 357.762238,258.227234 358.041351,257.269379 
	C365.673187,231.078613 383.822601,215.965256 409.318909,208.592194 
	C409.253754,208.579605 409.188599,208.567017 409.123444,208.554428 
	C376.358856,208.014130 352.536743,223.615723 341.784424,252.971481 
	C340.269379,257.107849 338.068024,262.422302 339.444427,265.901825 
	C342.684052,274.091675 348.003082,281.406647 355.333832,285.604279 
	C355.906616,277.429230 356.483185,269.200073 357.256592,260.158325 
M434.525360,215.505432 
	C434.525360,215.505432 434.491180,215.490158 434.525360,215.505432 
M338.494507,276.525452 
	C338.494507,276.525452 338.509888,276.491241 338.494507,276.525452 
z"/>
<path fill="#EFEFEF" opacity="1.000000" stroke="none" 
	d="
M437.974182,486.962189 
	C432.277252,493.996124 425.295685,496.078003 416.680939,495.327942 
	C408.580261,494.622620 400.364075,495.342682 392.209778,495.085480 
	C390.125641,495.019745 387.693298,494.096344 386.093323,492.761200 
	C380.856781,488.391479 375.756561,483.820801 370.980377,478.957672 
	C369.352203,477.299927 368.118591,474.598419 367.955780,472.285767 
	C367.535675,466.318115 367.505615,460.280548 367.908508,454.310638 
	C368.244110,449.337463 366.962097,445.603302 362.610718,442.969604 
	C361.212738,442.123474 360.088257,440.825470 358.752716,439.659180 
	C358.972870,439.187531 359.050446,438.587646 359.369232,438.401947 
	C367.134033,433.879395 368.436340,426.956146 367.975739,418.546173 
	C367.331116,406.775757 367.813110,394.943634 367.813110,382.802185 
	C373.302429,382.802185 378.521790,382.802185 384.177704,382.802185 
	C384.177704,384.671143 384.177704,386.463562 384.177704,388.256012 
	C384.177673,413.244171 384.249023,438.232727 384.098297,463.219971 
	C384.076477,466.843018 385.186768,469.231354 387.720795,471.858032 
	C392.933075,477.260864 398.695557,480.120972 406.277252,478.864624 
	C407.898621,478.595947 409.673187,478.515472 411.256744,478.876556 
	C420.475952,480.978821 426.249603,475.404144 431.797852,469.615479 
	C432.842499,468.525635 433.099640,466.332886 433.104858,464.647095 
	C433.183807,439.159424 433.159943,413.671448 433.160187,388.183533 
	C433.160217,386.523529 433.160187,384.863495 433.160187,382.845337 
	C438.692749,382.845337 444.073517,382.845337 449.842407,382.845337 
	C449.842407,396.468536 450.167664,409.937439 449.690643,423.377869 
	C449.484894,429.174500 450.999268,433.300934 455.862152,436.321869 
	C456.956696,437.001831 457.801392,438.083954 458.718109,438.940765 
	C458.543457,439.412750 458.524109,439.829620 458.324646,439.951416 
	C451.014923,444.413666 448.268860,450.867188 449.835510,459.232697 
	C449.895813,459.554596 449.791443,459.907135 449.850677,460.229431 
	C451.955658,471.684601 448.278442,480.596863 437.974182,486.962189 
z"/>
<path fill="#EDEDEE" opacity="1.000000" stroke="none" 
	d="
M260.618469,493.859283 
	C254.272003,494.658569 248.115250,495.129120 240.775055,495.690125 
	C246.347046,487.067810 251.146515,479.584137 256.003998,472.138275 
	C262.459320,462.242920 268.866577,452.313629 275.503235,442.540710 
	C277.276306,439.929810 277.234436,438.057678 275.511658,435.453369 
	C265.042511,419.627350 254.738419,403.692139 244.392349,387.784851 
	C243.422028,386.292938 242.542847,384.741730 241.193848,382.511230 
	C247.279633,382.511230 252.712387,382.289062 258.102997,382.667267 
	C259.452728,382.761963 260.991852,384.575806 261.892822,385.958649 
	C270.146698,398.626984 278.279022,411.374542 286.929840,424.851593 
	C290.137848,419.964264 293.018066,415.623383 295.850342,411.251404 
	C301.371124,402.729309 306.938812,394.235931 312.322418,385.627686 
	C313.816528,383.238617 315.454773,382.237579 318.347839,382.421844 
	C322.944611,382.714661 327.573700,382.500000 333.160034,382.500000 
	C329.039490,388.865723 325.404938,394.528503 321.722260,400.159851 
	C314.163147,411.718842 306.689056,423.336304 298.929840,434.759827 
	C296.860199,437.806854 296.697083,439.904999 298.836853,443.085754 
	C310.258820,460.064545 321.394226,477.236084 333.190460,495.196228 
	C326.991577,495.196228 321.433044,495.379486 315.904510,495.053375 
	C314.688385,494.981628 313.290192,493.289520 312.464935,492.024536 
	C304.101959,479.205505 295.840576,466.320221 287.002441,452.602631 
	C278.074463,466.552399 269.441345,480.041504 260.618469,493.859283 
z"/>
<path fill="#EEEEEE" opacity="1.000000" stroke="none" 
	d="
M515.537598,412.000305 
	C515.537598,434.451447 515.537598,456.402557 515.537598,478.714294 
	C532.885437,478.714294 549.661621,478.714294 566.722534,478.714294 
	C566.722534,484.318054 566.722534,489.561401 566.722534,495.006165 
	C544.252869,495.006165 521.796875,495.006165 498.989746,495.006165 
	C498.989746,481.708557 498.694397,468.557831 499.127411,455.431122 
	C499.314484,449.760132 498.166229,445.435883 493.220337,442.385315 
	C491.987579,441.624939 491.000366,440.466309 489.864990,439.459412 
	C490.256348,438.904053 490.448212,438.340973 490.833649,438.127747 
	C498.669891,433.792694 499.523071,426.832336 499.134338,418.703644 
	C498.570160,406.906555 498.989746,395.062439 498.989746,382.859039 
	C504.398895,382.859039 509.619659,382.859039 515.537659,382.859039 
	C515.537659,392.312164 515.537659,401.906219 515.537598,412.000305 
z"/>
<path fill="#EDEDED" opacity="1.000000" stroke="none" 
	d="
M469.109894,275.951172 
	C466.945374,324.262238 416.442871,351.418335 378.460175,333.054565 
	C408.963928,332.705444 433.005981,321.867157 446.113281,293.984009 
	C459.075806,266.408905 453.939728,240.732208 434.966431,217.404892 
	C447.314453,220.296097 470.430389,244.333557 469.109894,275.951172 
z"/>
<path fill="#EEEEEE" opacity="1.000000" stroke="none" 
	d="
M339.039062,280.515930 
	C339.014526,279.617493 339.014526,279.120270 339.014526,278.507111 
	C369.793976,311.937714 403.673157,314.837463 441.558472,289.527863 
	C440.142883,292.481110 439.048950,295.646759 437.260956,298.354004 
	C422.532410,320.654907 393.869751,331.019592 368.048035,324.279694 
	C357.818024,321.609528 351.487457,314.903931 347.422821,306.277039 
	C343.657288,298.285095 341.775146,289.405731 339.039062,280.515930 
z"/>
<path fill="#ECECEC" opacity="1.000000" stroke="none" 
	d="
M357.158173,260.564636 
	C356.483185,269.200073 355.906616,277.429230 355.333832,285.604279 
	C348.003082,281.406647 342.684052,274.091675 339.444427,265.901825 
	C338.068024,262.422302 340.269379,257.107849 341.784424,252.971481 
	C352.536743,223.615723 376.358856,208.014130 409.123444,208.554428 
	C409.188599,208.567017 409.253754,208.579605 409.318909,208.592194 
	C383.822601,215.965256 365.673187,231.078613 358.041351,257.269379 
	C357.762238,258.227234 357.517395,259.195099 357.158173,260.564636 
z"/>
<path fill="#EDEDED" opacity="1.000000" stroke="none" 
	d="
M434.508270,215.497803 
	C434.491180,215.490158 434.525360,215.505432 434.508270,215.497803 
z"/>
<path fill="#EEEEEE" opacity="1.000000" stroke="none" 
	d="
M338.502197,276.508362 
	C338.509888,276.491241 338.494507,276.525452 338.502197,276.508362 
z"/>
</svg>
