<svg version="1.1" id="Layer_1" xmlns="http://www.w3.org/2000/svg" xmlns:xlink="http://www.w3.org/1999/xlink" x="0px" y="0px"
	 width="100%" viewBox="0 0 1024 672" enable-background="new 0 0 1024 672" xml:space="preserve">
<path fill="#000000" opacity="1.000000" stroke="none" 
	d="
M427.468658,673.000000 
	C424.602539,666.213013 420.709442,660.406433 415.156982,655.851990 
	C411.898102,653.178894 409.206573,649.996277 406.672546,646.747986 
	C404.187256,643.562256 401.225372,641.619873 397.505432,640.236877 
	C378.021515,632.993225 357.935333,632.098389 337.431335,633.455383 
	C324.689362,634.298584 315.399139,627.231323 307.816223,617.683533 
	C304.454865,613.451172 302.352600,608.564026 300.666718,603.472107 
	C295.378815,587.500854 286.032715,573.950745 274.321106,562.243286 
	C264.328430,552.254272 253.485703,543.005493 241.474304,535.437805 
	C220.628937,522.304260 207.901108,502.637238 196.906601,481.453766 
	C195.604019,478.944031 194.413498,476.297699 192.674316,474.109406 
	C189.067368,469.571045 187.047470,464.462982 185.365326,458.959229 
	C182.877808,450.820465 179.034149,443.826050 171.467987,438.449524 
	C158.512573,429.243439 154.915359,414.628632 151.894104,399.801941 
	C148.393875,382.624725 156.093887,369.411621 165.874161,356.926697 
	C181.920410,336.443024 190.730606,313.185883 194.032135,287.566376 
	C196.817413,265.952820 199.040970,244.248230 206.817719,223.573563 
	C210.965118,212.547546 217.760483,203.522766 225.471085,194.931946 
	C242.300522,176.181396 260.434479,158.895279 281.220520,144.520569 
	C293.569733,135.980377 303.380615,124.435341 315.280457,115.398735 
	C330.249451,104.031448 345.636505,93.216545 360.739075,82.022835 
	C382.737213,65.718277 407.194641,55.357452 434.142761,50.487961 
	C441.805847,49.103252 449.018585,45.559330 456.498627,43.437729 
	C476.370514,37.801338 495.158264,28.846270 515.394348,24.454130 
	C529.847229,21.317196 544.030701,23.731716 557.688904,28.298532 
	C567.091187,31.442331 576.486694,33.877625 586.317261,34.832390 
	C593.767517,35.555981 601.097900,37.200443 608.619324,37.474907 
	C626.321899,38.120880 639.426208,48.294472 652.993286,58.216640 
	C666.141479,67.832527 677.118347,79.704453 688.552917,90.941833 
	C700.757812,102.936249 714.171326,113.748116 725.248718,126.878670 
	C727.599854,129.665588 729.797302,132.675079 731.533569,135.871017 
	C737.825562,147.452301 746.725037,157.153580 756.041199,165.970474 
	C770.739502,179.881134 782.060425,196.793442 796.992920,210.295258 
	C805.143616,217.664978 812.396484,225.331726 817.326843,235.226227 
	C820.101257,240.794189 821.453796,246.257553 820.466309,252.523895 
	C817.931702,268.608185 820.297791,284.744690 820.585938,300.849670 
	C820.895325,318.140198 826.177063,334.718994 830.100891,351.328644 
	C835.517761,374.258362 835.831848,396.739868 830.985718,419.591248 
	C829.677002,425.762115 829.453796,432.155914 828.331848,438.375092 
	C825.634583,453.326324 817.070312,465.548798 809.135498,477.964722 
	C805.301270,483.964386 798.219360,486.513794 792.917786,491.074249 
	C777.902893,503.990112 762.951355,516.931824 749.258423,531.276184 
	C746.625488,534.034424 743.764526,536.673096 740.645874,538.845947 
	C736.261597,541.900452 733.629578,546.218140 730.641174,550.432190 
	C723.630737,560.317627 716.584106,570.096924 711.451111,581.203552 
	C709.714600,584.960876 705.934326,587.754272 702.438232,590.377380 
	C696.381958,594.921387 690.208069,599.120911 684.790710,604.717468 
	C679.272461,610.418274 671.796509,614.315247 665.448242,619.441956 
	C656.486938,626.678955 650.737854,635.657776 647.950317,646.618103 
	C646.815002,651.081543 644.645691,654.236206 640.705994,656.811951 
	C635.236084,660.388306 631.762268,665.484741 632.842285,672.780884 
	C564.645752,673.000000 496.291534,673.000000 427.468658,673.000000 
M530.007019,519.507080 
	C588.990967,460.022247 647.974915,400.537384 707.278381,340.730286 
	C706.648926,338.823151 704.318298,337.325287 702.474060,335.485809 
	C667.202881,300.304688 631.892029,265.163330 596.600525,230.002579 
	C570.277344,203.777054 543.989197,177.516434 517.637756,151.319489 
	C512.972412,146.681549 512.879272,146.805817 508.265686,151.429718 
	C495.790863,163.932449 483.314117,176.433350 470.816223,188.913040 
	C421.062256,238.594452 371.322205,288.289917 321.485474,337.888184 
	C318.483093,340.876190 318.640137,342.699310 321.602417,345.521606 
	C330.404022,353.907318 338.989258,362.521912 347.594055,371.112183 
	C399.589905,423.020416 451.564301,474.950165 503.559784,526.858826 
	C506.590424,529.884338 509.742737,532.788025 514.001892,536.861084 
	C519.401062,530.998840 524.458618,525.507446 530.007019,519.507080 
z"/>
<path fill="#000000" opacity="1.000000" stroke="none" 
	d="
M564.983765,436.983612 
	C548.807617,453.113739 532.776672,468.891266 517.029419,484.946991 
	C513.841553,488.197266 512.120300,487.891968 509.116730,484.882660 
	C478.518799,454.225677 447.800751,423.688416 417.093323,393.140747 
	C401.271179,377.400909 385.495972,361.611542 369.483185,346.067474 
	C365.917145,342.605835 365.757690,340.635925 369.435608,336.992737 
	C415.942841,290.924957 462.309052,244.714462 508.581604,198.410858 
	C511.895966,195.094315 513.799072,194.689667 517.312805,198.206436 
	C564.058533,244.992523 610.950378,291.632721 657.795654,338.319427 
	C658.606384,339.127472 659.292236,340.060883 660.057617,340.960876 
	C628.366577,372.965942 596.797791,404.847504 564.983765,436.983612 
M467.208008,288.708130 
	C451.016968,305.033203 434.882843,321.415436 418.585663,337.633850 
	C415.429108,340.775146 415.835449,342.966949 418.793610,345.853241 
	C427.260681,354.114532 435.515930,362.592407 443.904144,370.935150 
	C465.760162,392.672638 487.676361,414.349823 509.471741,436.147858 
	C512.166809,438.843231 514.181641,439.236420 516.853760,436.271057 
	C519.637756,433.181519 522.744934,430.384186 525.693787,427.441986 
	C552.942017,400.255310 580.129822,373.007507 607.502686,345.946899 
	C610.998230,342.491180 610.810913,340.302002 607.421448,337.102386 
	C600.638977,330.699677 594.168701,323.966644 587.552185,317.387512 
	C564.160156,294.127838 540.692993,270.943085 517.432678,247.552399 
	C513.673401,243.772034 511.304230,244.642700 508.038330,247.950790 
	C494.693787,261.467651 481.171295,274.808807 467.208008,288.708130 
z"/>
</svg>
